<svg width="49" height="51" viewBox="0 0 49 51" fill="none" xmlns="http://www.w3.org/2000/svg">
<path d="M48.1231 46.4014H47.6276C46.4024 46.4014 45.4384 46.0176 44.7537 45.2768C43.2491 43.6346 43.5284 40.7072 43.5284 40.6269V20.0189C43.5284 13.0662 41.7986 7.91648 38.3841 4.73023C35.1498 1.72248 30.0146 0.196289 23.1045 0.196289C16.9151 0.196289 10.3113 1.42795 3.4733 3.86449L3.13996 3.98052V20.0903H5.76166L14.7439 6.06899C14.8249 5.94404 14.897 5.81908 14.9781 5.69413C15.6448 4.62313 16.2754 3.60567 18.6088 3.20404L18.771 3.17726C19.0593 3.12371 19.5458 3.02554 20.3026 3.02554C24.6901 3.02554 26.8253 6.46169 26.8253 13.5214L26.8883 14.0212L26.6541 23.3122C24.2036 21.8664 20.9422 21.1434 16.9331 21.1434C12.5276 21.1434 8.61758 22.4822 5.30218 25.124C1.95073 27.7926 0.247986 31.4876 0.247986 36.084C0.247986 40.4127 1.56333 43.8667 4.158 46.3478C6.75266 48.8201 10.014 50.0785 13.852 50.0785C17.0322 50.0785 19.8701 49.1949 22.2846 47.4456C24.1766 46.0801 25.6541 44.3486 26.6721 42.2691C27.1226 44.4289 28.1677 46.1961 29.7983 47.5259C31.9425 49.2753 36.1949 50.016 37.8076 50.0785C38.5013 50.1053 39.1589 50.1231 39.7896 50.1231C44.8528 50.1231 47.6637 49.2842 47.7988 49.2485L48.1682 49.1325L48.1051 46.4014H48.1231ZM21.4738 42.0906C19.9602 42.0906 18.762 41.4569 17.789 40.1449C16.798 38.8062 16.2935 36.8962 16.2935 34.4686C16.2935 31.7196 16.9601 29.4438 18.2665 27.6944C19.5548 25.963 21.2936 25.124 23.591 25.124C24.627 25.124 25.6541 25.2668 26.6451 25.5613L26.4559 39.1007C25.0865 41.1178 23.4558 42.0995 21.4738 42.0995" fill="#323D4A"/>
</svg>
