<svg width="59" height="50" viewBox="0 0 59 50" fill="none" xmlns="http://www.w3.org/2000/svg">
<path d="M53.3499 42.7061C53.3499 40.3677 53.3499 22.9728 53.3499 20.8308C53.3499 14.1816 51.9985 9.02289 49.3408 5.51534C46.656 1.95423 42.773 0.151367 37.8089 0.151367C30.7907 0.151367 25.9617 2.98954 23.0968 8.80869L23.0788 0.883223H6.21348H0.618713V3.50719L6.20446 7.44315C6.20446 13.7532 6.19545 23.6065 6.20446 30.1396C6.20446 33.665 6.20446 38.7523 6.20446 42.724L0.618713 46.6599V49.2839H22.0788H28.6826V46.6599L23.0788 42.7061V12.9588C24.9167 10.3616 27.0519 9.10322 29.6105 9.10322C32.1691 9.10322 33.971 10.1921 34.9169 12.4323C35.917 14.7796 36.4215 18.3496 36.4215 23.0442C36.4215 23.4726 36.4215 24.847 36.4395 26.6945L36.4575 30.1485C36.4755 35.2537 36.5116 41.3941 36.5206 42.715L30.9349 46.651V49.275H36.2683H52.3318H58.9356V46.651L53.3409 42.715L53.3499 42.7061Z" fill="#323D4A"/>
</svg>
