<svg width="53" height="50" viewBox="0 0 53 50" fill="none" xmlns="http://www.w3.org/2000/svg">
<path d="M45.3186 6.39928C40.6788 2.15094 34.3093 0 26.3902 0C18.471 0 12.1826 2.16879 7.55182 6.4439C2.90305 10.7279 0.551636 16.9398 0.551636 24.892C0.551636 32.8443 2.89404 39.2257 7.50678 43.483C12.1105 47.7313 18.462 49.8822 26.3902 49.8822C34.3183 49.8822 40.6068 47.7134 45.2736 43.4383C49.9494 39.1454 52.3278 32.9424 52.3278 24.9902C52.3278 17.038 49.9764 10.6565 45.3276 6.39928M20.9936 7.24716C22.2009 4.27511 23.9667 2.82925 26.3992 2.82925C28.8317 2.82925 30.5885 4.30188 31.8047 7.33641C33.057 10.487 33.6967 16.4221 33.6967 24.9902C33.6967 33.5583 33.057 39.5738 31.8047 42.6886C30.5975 45.6964 28.8227 47.1512 26.3992 47.1512C23.9757 47.1512 22.2099 45.6607 20.9936 42.5904C19.7413 39.4131 19.1017 33.4601 19.1017 24.892C19.1017 16.324 19.7413 10.3263 20.9936 7.24716Z" fill="#323D4A"/>
</svg>
