<svg width="42" height="50" viewBox="0 0 42 50" fill="none" xmlns="http://www.w3.org/2000/svg">
<path d="M41.7254 4.06057C39.9956 1.39197 35.1576 0.606568 33.1936 0.651194C26.5088 0.82077 24.0582 6.65777 22.86 9.94219L22.905 0.87432L0.426973 0.918947V3.44474L6.01271 7.42532V41.8315C6.01271 42.4116 6.01271 42.5009 6.01271 42.5812C6.01271 42.608 6.01271 42.6437 6.01271 42.6972L0.417969 46.6332V49.2571H6.50822L7.01273 49.2214H21.869V49.2661L29.7161 49.2304V46.5796L22.887 42.6704L22.815 15.0206C23.9952 12.9053 25.8691 10.3795 28.2385 10.0404C29.7161 9.82617 31.2566 10.5134 32.8242 12.0664C34.6531 13.8781 39.0767 19.8133 39.1217 19.8669L39.2749 20.0721H41.7794V4.1766L41.6983 4.05165L41.7254 4.06057Z" fill="#323D4A"/>
</svg>
