<svg width="79" height="50" viewBox="0 0 79 50" fill="none" xmlns="http://www.w3.org/2000/svg">
<path d="M60.7584 0.882949V3.32842L66.4072 13.387C66.9748 14.4312 67.0558 14.8061 67.0739 14.9221C67.0829 15.0381 67.0739 15.4219 66.6684 16.6268L59.8394 36.7082L50.695 9.27252C50.4878 8.59421 50.5599 7.95161 50.9113 7.31793L54.2717 3.38197V0.882949H29.2801V3.36412L32.3342 7.57675C32.9558 8.82626 33.6225 10.4953 34.3072 12.5391L36.5595 19.2597L30.4693 36.7974L21.406 9.26359C21.1988 8.58529 21.2708 7.94268 21.6222 7.309L24.9827 3.37304V0.874023H0V3.35519L3.05414 7.56783C3.49559 8.45141 4.16227 10.1204 5.03617 12.5391L17.577 49.2211H29.181L38.0641 23.6776L46.9472 49.2211H58.452L69.5514 17.2158C69.9208 16.0466 70.6145 14.6365 71.6055 13.0478L78.2363 3.35519V0.882949H60.7584Z" fill="#323D4A"/>
</svg>
